<svg width="69" height="47" viewBox="0 0 69 47" fill="none" xmlns="http://www.w3.org/2000/svg">
<path d="M45.6442 46.9034H0V0H45.6442V16.0478H43.5282V2.17434H2.11375V44.7291H43.5282V30.7508H45.6442V46.9034Z" fill="#B22222"/>
<path d="M9.32446 18.635H11.4449V22.7877L14.4791 18.635H17.0231L13.5386 23.0338L17.3004 28.1665H14.6122L11.4449 23.631V28.1665H9.32446V18.635Z" fill="#B22222"/>
<path d="M22.8299 26.2019C24.5399 26.2019 25.4272 24.9597 25.4272 23.4007C25.4272 21.7095 24.2827 20.5995 22.8299 20.5995C21.3394 20.5995 20.2348 21.7095 20.2348 23.4007C20.2348 24.9848 21.3904 26.2019 22.8299 26.2019ZM22.8299 18.6189C25.5691 18.6189 27.6141 20.4537 27.6141 23.4007C27.6141 26.2019 25.5691 28.1825 22.8299 28.1825C20.0928 28.1825 18.0479 26.3454 18.0479 23.4007C18.0479 20.7181 19.9642 18.6189 22.8299 18.6189Z" fill="#B22222"/>
<path d="M36.5301 28.1661L32.1319 22.4476V28.1661H30.1423V18.6367H31.8391L36.2396 24.3803L36.2351 18.6367H38.2224L38.2269 28.1661H36.5301Z" fill="#B22222"/>
<path d="M40.7781 18.635H48.4634V20.6771H45.6799V28.1665H43.5595V20.6771H40.7781V18.635Z" fill="#B22222"/>
<path d="M58.7479 24.0661C58.7479 26.9788 56.9469 28.164 54.9596 28.164C52.5753 28.164 50.9185 26.7623 50.9185 23.9704V18.6394H53.0388V23.5077C53.0388 24.9914 53.4758 26.1219 54.9596 26.1219C56.2438 26.1219 56.6275 25.1555 56.6275 23.6308V18.6394H58.7479V24.0661Z" fill="#B22222"/>
<path d="M63.4173 20.7089V22.8194H64.1847C64.9943 22.8194 65.6287 22.5185 65.6287 21.7163C65.6287 21.1852 65.3669 20.7066 64.3466 20.7066C64.0272 20.7066 63.8542 20.6952 63.4173 20.7089ZM61.2969 28.164V18.6394C61.8137 18.6394 64.1847 18.6394 64.4509 18.6394C66.9816 18.6394 67.8821 19.9317 67.8821 21.6889C67.8821 23.4575 66.8219 24.18 66.3185 24.4399L69 28.164H66.4294L64.198 24.8615H63.4173V28.164H61.2969Z" fill="#B22222"/>
</svg>
